<svg width="1024" height="1024" xmlns="http://www.w3.org/2000/svg" clip-rule="evenodd" xml:space="preserve" version="1.1">
 <defs>
  <linearGradient y2="0.0665" x2="0.93911" y1="1" x1="0" id="_Linear1">
   <stop stop-color="#ff6757" offset="0"/>
   <stop stop-color="#ffdc66" offset="1"/>
  </linearGradient>
 </defs>
 <g>
  <title>Layer 1</title>
  <path id="svg_1" fill="url(#_Linear1)" d="m176.17541,81.39143l-15.72372,0c-3.6765,0 -6.66095,-2.98573 -6.66095,-6.66095l0,-13.32191c0,-3.67523 2.98445,-6.66095 6.66095,-6.66095l4.24769,0l4.19426,-50.06784c0,-2.50485 2.03289,-4.53774 4.53774,-4.53774l41.40452,0c2.50485,0 4.53774,2.03289 4.53774,4.53774l4.19426,50.06784l4.24769,0c3.6765,0 6.66095,2.98573 6.66095,6.66095l0,13.32191c0,3.67523 -2.98445,6.66095 -6.66095,6.66095l-17.35334,0l0,50.99777l249.03396,-50.20014c0,0 -10.94427,7.77027 -29.13722,25.96322c-18.19423,18.19423 -15.81277,24.87172 -15.81277,24.87172l-183.72963,38.38827l115.41923,137.90313c0,0 -3.73248,8.89993 -2.64479,27.24427c1.54311,26.04591 7.6545,34.41917 7.6545,34.41917l-140.78327,-165.29243l0,801.02813c0,9.46222 -7.68122,17.14343 -17.14343,17.14343c-9.46222,0 -17.14343,-7.68122 -17.14343,-17.14343l0,-925.32311zm657.09248,372.72341c0.99227,-1.60418 2.71221,-2.6168 4.59753,-2.70458c1.88532,-0.08778 3.69177,0.75947 4.83034,2.26442c8.63532,11.41242 25.23174,33.35693 25.23174,33.35693c0,0 11.03077,22.20276 -15.41459,43.36236c-26.44536,21.1596 -46.58597,6.24624 -46.58597,6.24624c0,0 -14.17552,-7.44587 -23.23447,-12.20369c-1.66269,-0.87524 -2.79109,-2.50867 -3.0188,-4.37364c-0.22644,-1.86497 0.47578,-3.7223 1.87896,-4.97027c11.20506,-10.02324 22.79176,-21.5476 32.45625,-33.64316c7.22452,-9.04241 13.63867,-18.32653 19.25901,-27.33459zm-107.84869,-141.35446c0.81036,-1.86624 2.54938,-3.16255 4.56955,-3.40426c2.02017,-0.24171 4.01616,0.60809 5.24378,2.23007c15.98197,21.12779 59.37358,78.50029 69.60672,92.03083c1.3383,1.76828 1.53548,4.14974 0.50504,6.11393c-6.73474,12.69983 -15.74407,27.21374 -27.59029,42.04187c-11.40733,14.27983 -31.76548,29.94885 -48.06929,41.33456c-1.75302,1.21999 -4.04033,1.36247 -5.93074,0.36892c-13.03949,-6.84923 -64.00292,-33.61899 -82.53935,-43.35472c-1.59527,-0.83962 -2.70204,-2.38018 -2.987,-4.16119c-0.28623,-1.77973 0.28369,-3.58999 1.53802,-4.88504c15.33444,-15.9756 32.65471,-36.03607 47.80596,-58.53269c15.99087,-23.74205 28.60674,-48.77406 37.8476,-69.78228zm-138.19827,-136.23916c0.27606,-2.07614 1.66651,-3.83679 3.62307,-4.58609c1.95783,-0.75057 4.16755,-0.37147 5.76155,0.98846c21.35805,18.21585 78.90865,67.30286 92.25473,78.68602c1.70213,1.45025 2.40436,3.75665 1.79881,5.90912c-5.46768,18.58478 -18.18023,51.20132 -47.27293,94.39829c-20.79576,30.87497 -43.23641,52.31953 -59.86081,65.72032c-0.99863,0.79891 -2.37382,0.93248 -3.50603,0.33839l-56.16269,-9.9062c-1.76319,-0.31168 -3.27959,-1.43116 -4.09631,-3.02389c-0.81672,-1.594 -0.84089,-3.47805 -0.06615,-5.0924c14.86884,-31.18538 33.21063,-74.37218 45.20824,-119.14662c11.88057,-44.33555 18.64711,-78.38071 22.31852,-104.28541zm-136.98464,210.73856c-2.99209,4.23879 -8.16336,6.36709 -13.2723,5.46641c-7.71684,-1.34466 -19.01985,-3.33811 -26.17949,-4.60135c-4.69803,-0.82689 -8.84268,-3.56455 -11.44804,-7.56036c-9.22687,-16.02904 -27.15013,-62.96739 6.43324,-157.17868c53.18205,-149.18961 101.64571,-126.53905 101.64571,-126.53905c0,0 6.96881,5.94346 11.69738,9.97744c2.72494,2.32294 4.40926,5.63815 4.67641,9.20906c1.20345,23.1098 -1.29759,68.17937 -22.35033,146.74963c-17.55688,65.52441 -37.21408,103.59336 -51.20259,124.47691z"/>
 </g>
</svg>